<svg width="124" height="124" viewBox="0 0 124 124" fill="none" xmlns="http://www.w3.org/2000/svg">
<path fill-rule="evenodd" clip-rule="evenodd" d="M121 3H3V121H121V3ZM0 0V124H124V0H0Z" fill="white"/>
<path d="M31.6011 78.48C30.6144 78.48 29.5078 78.28 28.2811 77.88C27.0544 77.48 25.7878 77 24.4811 76.44C23.2011 75.88 21.9478 75.3467 20.7211 74.84C20.0544 75.56 19.3344 76.12 18.5611 76.52C17.7878 76.92 16.9611 77.12 16.0811 77.12C15.1478 77.12 14.3478 76.9067 13.6811 76.48C12.9878 76.08 12.4678 75.5867 12.1211 75C11.7478 74.4133 11.5611 73.88 11.5611 73.4C11.5611 72.8667 11.8011 72.4 12.2811 72C12.7611 71.6 13.6144 71.4 14.8411 71.4C15.5611 71.4 16.3478 71.48 17.2011 71.64C18.0811 71.7733 18.9744 71.96 19.8811 72.2C20.4944 71.1333 21.0544 69.88 21.5611 68.44C22.0944 67 22.6144 65.4933 23.1211 63.92C23.6278 62.32 24.1344 60.76 24.6411 59.24C23.3078 58.7867 22.2811 58.16 21.5611 57.36C20.8411 56.5333 20.4811 55.7067 20.4811 54.88C20.4811 54.3467 20.6144 53.8267 20.8811 53.32C21.1478 52.7867 21.5344 52.3467 22.0411 52C22.5478 51.6267 23.1478 51.44 23.8411 51.44C23.4944 51.8667 23.2678 52.3467 23.1611 52.88C23.0811 53.4133 23.0411 53.84 23.0411 54.16C23.0411 55.04 23.2411 55.7867 23.6411 56.4C24.0411 57.0133 24.5344 57.4933 25.1211 57.84C25.6278 56.32 26.1611 54.8667 26.7211 53.48C27.3078 52.0667 27.9478 50.8267 28.6411 49.76C29.3611 48.6667 30.1478 47.8 31.0011 47.16C31.8811 46.52 32.8678 46.2 33.9611 46.2C34.5744 46.2 35.2144 46.3333 35.8811 46.6C36.5744 46.84 37.1611 47.2667 37.6411 47.88C38.1478 48.4933 38.4011 49.3733 38.4011 50.52C38.4011 51.4267 38.2011 52.4 37.8011 53.44C37.4278 54.48 36.8278 55.48 36.0011 56.44C35.1744 57.3733 34.1078 58.16 32.8011 58.8C31.5211 59.4133 29.9611 59.7467 28.1211 59.8C28.0678 59.8 28.0011 59.8 27.9211 59.8C27.8678 59.8 27.8144 59.8 27.7611 59.8C27.2544 61.3467 26.7211 62.9067 26.1611 64.48C25.6011 66.0533 25.0011 67.56 24.3611 69C23.7211 70.44 23.0278 71.72 22.2811 72.84C23.3211 73.1333 24.4678 73.4667 25.7211 73.84C27.0011 74.2133 28.2678 74.5333 29.5211 74.8C30.8011 75.04 31.9211 75.16 32.8811 75.16C33.5211 75.16 34.1078 75.0933 34.6411 74.96C35.2011 74.8 35.7878 74.5733 36.4011 74.28C35.8678 75.7733 35.2011 76.84 34.4011 77.48C33.6278 78.1467 32.6944 78.48 31.6011 78.48ZM15.6811 75.64C16.3744 75.64 16.9344 75.48 17.3611 75.16C17.7878 74.8667 18.2144 74.4933 18.6411 74.04C17.8144 73.7467 17.0411 73.5067 16.3211 73.32C15.6011 73.1067 14.9744 73 14.4411 73C13.9344 73 13.5744 73.0933 13.3611 73.28C13.1211 73.4667 13.0011 73.6933 13.0011 73.96C13.0011 74.3867 13.2678 74.7733 13.8011 75.12C14.3344 75.4667 14.9611 75.64 15.6811 75.64ZM28.2011 58.48C29.3744 58.4 30.4144 58.0267 31.3211 57.36C32.2278 56.6933 33.0011 55.8933 33.6411 54.96C34.2811 54.0267 34.7611 53.08 35.0811 52.12C35.4278 51.1333 35.6011 50.28 35.6011 49.56C35.6011 48.8667 35.4678 48.4 35.2011 48.16C34.9344 47.8933 34.6278 47.76 34.2811 47.76C33.5078 47.76 32.7744 48.2533 32.0811 49.24C31.3878 50.2267 30.7211 51.5333 30.0811 53.16C29.4678 54.76 28.8411 56.5333 28.2011 58.48Z" fill="white"/>
<path d="M42.7064 76.76C40.9997 76.76 39.6797 76.2933 38.7464 75.36C37.8397 74.4533 37.3864 73.3067 37.3864 71.92C37.3864 70.7467 37.6797 69.5067 38.2664 68.2C38.8797 66.8667 39.6931 65.6267 40.7064 64.48C41.7197 63.3067 42.8397 62.36 44.0664 61.64C45.2931 60.92 46.5197 60.56 47.7464 60.56C48.4397 60.56 49.0931 60.7467 49.7064 61.12C50.3464 61.4667 50.6664 62.1733 50.6664 63.24C50.6664 64.2533 50.3731 65.2 49.7864 66.08C49.1997 66.96 48.4131 67.7467 47.4264 68.44C46.4397 69.1333 45.3464 69.7067 44.1464 70.16C42.9731 70.5867 41.7864 70.8667 40.5864 71C40.5597 71.1067 40.5331 71.2267 40.5064 71.36C40.5064 71.4667 40.5064 71.6533 40.5064 71.92C40.5064 72.0533 40.5197 72.2933 40.5464 72.64C40.5997 72.96 40.7197 73.3067 40.9064 73.68C41.0931 74.0533 41.3997 74.3733 41.8264 74.64C42.2531 74.9067 42.8397 75.04 43.5864 75.04C44.7064 75.04 45.8264 74.7333 46.9464 74.12C48.0931 73.48 49.1597 72.64 50.1464 71.6C51.1597 70.56 51.9997 69.4 52.6664 68.12L53.4664 68.76C52.7464 70.36 51.8131 71.76 50.6664 72.96C49.5464 74.16 48.2931 75.0933 46.9064 75.76C45.5464 76.4267 44.1464 76.76 42.7064 76.76ZM41.0264 69.52C41.7197 69.44 42.4931 69.2 43.3464 68.8C44.1997 68.4 45.0131 67.8933 45.7864 67.28C46.5864 66.6667 47.2397 66 47.7464 65.28C48.2531 64.5333 48.5064 63.7867 48.5064 63.04C48.5064 62.7467 48.4531 62.5467 48.3464 62.44C48.2397 62.3333 48.0664 62.28 47.8264 62.28C47.2131 62.28 46.5731 62.5067 45.9064 62.96C45.2397 63.3867 44.5864 63.96 43.9464 64.68C43.3064 65.3733 42.7331 66.1467 42.2264 67C41.7197 67.8533 41.3197 68.6933 41.0264 69.52Z" fill="white"/>
<path d="M59.3392 78.48C58.4059 78.48 57.5126 78.3467 56.6592 78.08C55.8326 77.84 55.1126 77.3067 54.4992 76.48C54.5792 75.84 54.7659 74.9067 55.0592 73.68C55.3792 72.4533 55.7659 71.0667 56.2192 69.52C56.6726 67.9467 57.1526 66.3333 57.6592 64.68C58.1659 63.0267 58.6592 61.4533 59.1392 59.96C59.6459 58.44 60.0859 57.12 60.4592 56C60.8592 54.8533 61.1526 54.0267 61.3392 53.52C61.4192 53.3067 61.5526 52.9867 61.7392 52.56C61.9259 52.1333 62.1659 51.6933 62.4592 51.24C62.7526 50.7867 63.0859 50.4133 63.4592 50.12C63.8592 49.8 64.2859 49.64 64.7392 49.64C65.1926 49.64 65.6992 49.8267 66.2592 50.2C65.4326 52.0667 64.5926 54.1467 63.7392 56.44C62.9126 58.7067 62.1126 61.0533 61.3392 63.48C60.5926 65.88 59.8992 68.2267 59.2592 70.52C58.6459 72.7867 58.1392 74.8667 57.7392 76.76C57.9526 76.84 58.2459 76.8933 58.6192 76.92C59.0192 76.9733 59.3926 77 59.7392 77C61.4726 77 63.1259 76.5733 64.6992 75.72C66.2726 74.8933 67.7126 73.7867 69.0192 72.4C70.3526 70.9867 71.5126 69.4133 72.4992 67.68C73.4859 65.92 74.2459 64.12 74.7792 62.28C75.3126 60.44 75.5792 58.68 75.5792 57C75.5792 54.84 75.2059 53.0933 74.4592 51.76C73.7392 50.4 72.7392 49.4133 71.4592 48.8C70.1792 48.16 68.7126 47.84 67.0592 47.84C65.3259 47.84 63.7659 48.16 62.3792 48.8C60.9926 49.4133 59.8992 50.2667 59.0992 51.36C58.3259 52.4267 57.9392 53.6533 57.9392 55.04C57.9392 55.3333 57.9659 55.6533 58.0192 56C58.0726 56.32 58.1659 56.64 58.2992 56.96C57.1526 56.96 56.3259 56.72 55.8192 56.24C55.3392 55.7333 55.0992 55.12 55.0992 54.4C55.0992 53.4667 55.4326 52.52 56.0992 51.56C56.7926 50.6 57.7392 49.72 58.9392 48.92C60.1659 48.0933 61.5792 47.44 63.1792 46.96C64.7792 46.4533 66.5126 46.2 68.3792 46.2C70.9926 46.2 73.0859 46.7067 74.6592 47.72C76.2326 48.7067 77.3659 50.0533 78.0592 51.76C78.7792 53.44 79.1392 55.32 79.1392 57.4C79.1392 59.6933 78.7659 61.8933 78.0192 64C77.2992 66.08 76.2859 68 74.9792 69.76C73.6992 71.52 72.2059 73.0533 70.4992 74.36C68.8192 75.6667 67.0192 76.68 65.0992 77.4C63.2059 78.12 61.2859 78.48 59.3392 78.48Z" fill="white"/>
<path d="M78.4523 78.48C78.5857 78.08 78.9723 77.16 79.6123 75.72C80.279 74.3067 81.159 72.4133 82.2523 70.04C83.3723 67.64 84.6923 64.8 86.2123 61.52C87.7323 58.24 89.4257 54.5467 91.2923 50.44C91.399 50.2267 91.479 50 91.5323 49.76C91.6123 49.52 91.6523 49.3067 91.6523 49.12C91.6523 48.8533 91.5723 48.64 91.4123 48.48C91.2523 48.32 90.9457 48.24 90.4923 48.24C89.3723 48.24 88.4523 48.5867 87.7323 49.28C87.039 49.9467 86.519 50.7733 86.1723 51.76C85.8523 52.7467 85.6923 53.72 85.6923 54.68C85.6923 54.92 85.7057 55.2 85.7323 55.52C85.759 55.84 85.799 56.2 85.8523 56.6C85.2123 56.6 84.679 56.4133 84.2523 56.04C83.8523 55.64 83.5457 55.16 83.3323 54.6C83.119 54.0133 83.0123 53.4667 83.0123 52.96C83.0123 52.1067 83.2523 51.28 83.7323 50.48C84.239 49.68 84.8923 48.96 85.6923 48.32C86.4923 47.6533 87.3723 47.1333 88.3323 46.76C89.319 46.3867 90.2923 46.2 91.2523 46.2C92.239 46.2 93.079 46.48 93.7723 47.04C94.4657 47.5733 94.999 48.56 95.3723 50C95.7457 51.4133 95.9323 53.4533 95.9323 56.12C95.9323 57.8533 95.8657 59.6133 95.7323 61.4C95.6257 63.16 95.5057 64.8133 95.3723 66.36C95.239 67.9067 95.1723 69.2267 95.1723 70.32C95.7057 68.7467 96.359 67.08 97.1323 65.32C97.9323 63.5333 98.7857 61.7733 99.6923 60.04C100.599 58.28 101.492 56.6267 102.372 55.08C103.252 53.5333 104.039 52.1867 104.732 51.04C105.452 49.8667 105.999 49 106.372 48.44C106.746 47.8533 107.079 47.4133 107.372 47.12C107.666 46.8267 108.066 46.68 108.572 46.68C108.946 46.68 109.532 46.8267 110.332 47.12C110.092 47.6267 109.812 48.44 109.492 49.56C109.172 50.6533 108.826 51.9333 108.452 53.4C108.052 55 107.652 56.76 107.252 58.68C106.852 60.5733 106.492 62.4933 106.172 64.44C105.852 66.3867 105.586 68.24 105.372 70C105.186 71.7333 105.092 73.2667 105.092 74.6C105.092 75.2933 105.119 75.84 105.172 76.24C105.252 76.64 105.346 76.9867 105.452 77.28C105.586 77.6 105.732 78 105.892 78.48C104.746 78.48 103.866 78.3067 103.252 77.96C102.666 77.6133 102.266 77.0533 102.052 76.28C101.866 75.5333 101.772 74.5333 101.772 73.28C101.772 70.32 102.106 67.2133 102.772 63.96C103.466 60.68 104.266 57.3067 105.172 53.84C104.426 54.9067 103.652 56.1733 102.852 57.64C102.052 59.1067 101.266 60.6533 100.492 62.28C99.719 63.9067 98.9857 65.52 98.2923 67.12C97.599 68.6933 96.9857 70.16 96.4523 71.52C95.919 72.8533 95.5057 73.9733 95.2123 74.88C94.9723 74.96 94.799 75.0133 94.6923 75.04C94.6123 75.0667 94.5057 75.08 94.3723 75.08C93.439 75.08 92.839 74.52 92.5723 73.4C92.3323 72.2533 92.2123 70.6933 92.2123 68.72C92.2123 67.68 92.2257 66.5733 92.2523 65.4C92.279 64.2 92.319 62.9867 92.3723 61.76C92.4257 60.5067 92.4657 59.2667 92.4923 58.04C92.519 56.8133 92.5323 55.64 92.5323 54.52C92.5323 54.12 92.519 53.72 92.4923 53.32C92.4923 52.92 92.4923 52.5333 92.4923 52.16C90.4657 56.88 88.7457 60.92 87.3323 64.28C85.9457 67.6133 84.759 70.3333 83.7723 72.44C82.7857 74.52 81.879 76.04 81.0523 77C80.2257 77.9867 79.359 78.48 78.4523 78.48Z" fill="white"/>
</svg>
